<?xml version="1.0" standalone="no"?>
<!DOCTYPE svg PUBLIC "-//W3C//DTD SVG 20010904//EN"
 "http://www.w3.org/TR/2001/REC-SVG-20010904/DTD/svg10.dtd">
<svg version="1.0" xmlns="http://www.w3.org/2000/svg"
 width="395.000000pt" height="395.000000pt" viewBox="0 0 395.000000 395.000000"
 preserveAspectRatio="xMidYMid meet">
<metadata>
Created by potrace 1.16, written by Peter Selinger 2001-2019
</metadata>
<g transform="translate(0.000000,395.000000) scale(0.100000,-0.100000)"
fill="#000000" stroke="none">
<path d="M2330 3838 c0 -7 19 -21 43 -30 126 -52 296 -202 388 -342 182 -276
208 -616 70 -912 -116 -246 -322 -432 -571 -512 -104 -34 -154 -42 -314 -52
-173 -11 -272 -33 -392 -89 -258 -121 -435 -328 -520 -607 -25 -82 -28 -103
-28 -264 -1 -153 2 -186 22 -259 76 -278 269 -508 526 -626 90 -42 156 -54
331 -62 443 -19 867 110 1224 374 97 72 265 235 348 338 177 219 314 512 371
790 205 997 -377 1963 -1346 2235 -115 33 -152 37 -152 18z m-143 -2357 c114
-58 174 -194 139 -314 -35 -121 -126 -192 -264 -206 -91 -10 -135 -27 -186
-71 -61 -54 -90 -122 -91 -210 0 -66 4 -82 31 -130 17 -30 50 -70 73 -87 58
-45 30 -41 -70 9 -108 53 -193 137 -243 240 -37 74 -66 184 -66 248 0 128 70
290 165 385 138 138 382 203 512 136z"/>
</g>
</svg>
